<svg version="1.0" xmlns="http://www.w3.org/2000/svg"
 width="55.000000pt" height="47.000000pt" viewBox="0 0 55.000000 47.000000"
 preserveAspectRatio="xMidYMid meet">

<g transform="translate(0.000000,47.000000) scale(0.100000,-0.100000)"
fill="currentColor" stroke="none">
<path d="M0 345 c0 -168 11 -207 74 -271 38 -37 63 -54 99 -62 26 -7 51 -11
55 -8 4 2 7 19 6 37 -1 29 -5 34 -35 42 -66 17 -119 78 -119 136 0 20 5 21 78
21 l77 0 -2 112 -2 113 -115 3 -116 3 0 -126z"/>
<path d="M320 325 c0 -100 4 -156 13 -178 31 -73 100 -127 180 -142 l37 -7 0
41 c0 36 -3 41 -24 41 -51 0 -125 72 -129 125 l-2 30 78 3 77 3 0 114 0 115
-115 0 -115 0 0 -145z"/>
</g>
</svg>